<?xml version="1.0" encoding="utf-8"?>
<!-- Generator: Adobe Illustrator 15.1.0, SVG Export Plug-In  -->
<!DOCTYPE svg PUBLIC "-//W3C//DTD SVG 1.1//EN" "http://www.w3.org/Graphics/SVG/1.1/DTD/svg11.dtd" [
	<!ENTITY ns_flows "http://ns.adobe.com/Flows/1.0/">
]>
<svg version="1.1"
	 xmlns="http://www.w3.org/2000/svg" xmlns:xlink="http://www.w3.org/1999/xlink" xmlns:a="http://ns.adobe.com/AdobeSVGViewerExtensions/3.0/"
	 x="0px" y="0px" width="360px" height="149px" viewBox="-16.549 -19.612 360 149" enable-background="new -16.549 -19.612 360 149"
	 xml:space="preserve">
<defs>
</defs>
<path fill="#5F5D5C" d="M0,97.023V27.046h26.254c5.348,0,9.634,0.708,12.863,2.124s5.76,3.594,7.592,6.537
	c1.828,2.952,2.74,6.023,2.74,9.242c0,2.991-0.808,5.806-2.43,8.45c-1.622,2.637-4.07,4.77-7.354,6.393
	c4.234,1.24,7.486,3.359,9.761,6.35c2.274,2.991,3.411,6.523,3.411,10.593c0,3.275-0.689,6.326-2.072,9.136
	c-1.385,2.82-3.095,4.992-5.136,6.523c-2.033,1.524-4.589,2.678-7.658,3.457c-3.069,0.779-6.831,1.172-11.285,1.172H0z M9.264,56.45
	h15.131c4.102,0,7.049-0.269,8.83-0.813c2.355-0.699,4.126-1.86,5.321-3.481c1.196-1.627,1.792-3.661,1.792-6.112
	c0-2.323-0.561-4.371-1.672-6.136c-1.115-1.765-2.709-2.977-4.772-3.621c-2.073-0.653-5.62-0.983-10.647-0.983H9.264V56.45z
	 M9.264,88.765h17.423c2.991,0,5.089-0.112,6.302-0.332c2.125-0.383,3.906-1.018,5.346-1.913c1.428-0.889,2.604-2.19,3.525-3.889
	c0.926-1.705,1.389-3.666,1.389-5.896c0-2.606-0.67-4.877-2.004-6.8c-1.336-1.925-3.192-3.275-5.559-4.055
	c-2.378-0.781-5.785-1.173-10.238-1.173H9.264V88.765z"/>
<polygon fill="#5F5D5C" points="149.459,97.211 149.459,35.493 126.401,35.493 126.401,27.233 181.871,27.233 181.871,35.493 
	158.717,35.493 158.717,97.211 "/>
<path fill="#5F5D5C" d="M190.154,62.977c0-11.205,3.004-19.983,9.025-26.324c6.022-6.345,13.793-9.514,23.313-9.514
	c6.237,0,11.856,1.491,16.862,4.464c5.009,2.985,8.824,7.134,11.447,12.469c2.629,5.331,3.94,11.368,3.94,18.126
	c0,6.851-1.383,12.976-4.146,18.382c-2.764,5.406-6.681,9.5-11.746,12.284c-5.07,2.773-10.535,4.166-16.406,4.166
	c-6.354,0-12.037-1.537-17.045-4.607c-5.01-3.073-8.803-7.262-11.377-12.579C191.441,74.533,190.154,68.911,190.154,62.977
	 M199.366,63.12c0,8.139,2.188,14.553,6.565,19.233c4.375,4.687,9.865,7.029,16.472,7.029c6.723,0,12.259-2.365,16.606-7.094
	c4.346-4.729,6.522-11.445,6.522-20.137c0-5.495-0.931-10.293-2.789-14.394c-1.856-4.101-4.574-7.283-8.153-9.539
	c-3.58-2.257-7.599-3.385-12.052-3.385c-6.326,0-11.769,2.174-16.33,6.522C201.645,45.695,199.366,52.95,199.366,63.12"/>
<polygon fill="#5F5D5C" points="268.678,97.107 268.678,27.129 278.179,27.129 314.928,82.074 314.928,27.129 323.808,27.129 
	323.808,97.107 314.308,97.107 277.559,42.119 277.559,97.107 "/>
<polygon fill="#F1C200" points="59.119,97.152 69.068,97.152 91.127,35.269 114.046,97.152 124.313,97.152 95.576,27.118 
	86.686,27.118 "/>
<path fill="#F1C200" d="M102.353,11.27c0,6.226-5.05,11.27-11.272,11.27c-6.225,0-11.27-5.044-11.27-11.27
	C79.811,5.043,84.855,0,91.08,0C97.303,0,102.353,5.043,102.353,11.27 M91.08,4.072c-4.031,0-7.301,3.268-7.301,7.302
	c0,4.034,3.27,7.303,7.301,7.303c4.035,0,7.304-3.269,7.304-7.303C98.384,7.34,95.115,4.072,91.08,4.072"/>
</svg>
